<svg width="112" height="32" viewBox="0 0 112 32" fill="none" xmlns="http://www.w3.org/2000/svg">
<path d="M75.0647 23.5009L72.7823 24.4577H64.4607V7.5265H72.8135L74.9255 8.4833L75.7791 10.7985L75.7951 21.4017L75.0647 23.5009ZM79.6759 4.0385L74.0239 1.6001H58.4991V21.4017L58.5151 30.3849H74.1023L79.8623 27.8537L81.8023 22.4361L81.7871 9.7641L79.6759 4.0385ZM18.1808 23.4393L15.9144 24.4577H9.61037L7.57757 20.6161V11.3849L9.61197 7.5417H15.9304L18.0424 8.4369L18.5856 9.9025L14.7664 16.0457L18.616 22.2041L18.1816 23.4385L18.1808 23.4393ZM25.1983 10.5513L22.776 3.9777L17.156 1.6001H6.00877L1.59998 9.9193V22.0801L6.00877 30.4001H17.2024L22.9624 27.8073L25.2136 21.5257L21.7976 16.0617L25.1975 10.5521L25.1983 10.5513ZM104.423 1.6001V22.5441L100.541 24.4577H96.2407L92.3599 22.5441V1.6001H86.3823V26.1249L94.7663 30.3849H102.017L110.4 26.1249V1.6001H104.423ZM53.8879 1.6001H37.3391V7.5265H53.8895V1.6001H53.8879ZM53.8879 24.4577H37.3391V30.3849H53.8895V24.4577H53.8879ZM41.5303 17.7601V14.3953L40.6303 13.5153L37.3231 13.4993V10.2121L36.4223 9.3321H33.0543L32.1535 10.2281L32.1375 13.5001L28.8463 13.5153L27.9463 14.3953V17.7593L28.8311 18.6553H31.3463L32.1383 18.6393L32.1535 19.4265V21.9425L33.0535 22.8377H36.4231L37.3231 21.9417V18.6401L40.6303 18.6561L41.5303 17.7601Z" fill="#DCE7E9"/>
</svg>
