<svg width="72" height="72" viewBox="0 0 72 72" fill="none" xmlns="http://www.w3.org/2000/svg">
<path d="M36 6C19.5223 6 6 19.5223 6 36C6 50.0611 15.8666 62.8341 28.9688 66V56.0748C27.6705 56.359 26.4758 56.3673 25.1542 55.9777C23.3813 55.4545 21.9407 54.2735 20.8714 52.4726C20.1898 51.3227 18.9817 50.0758 17.7215 50.1673L17.4125 46.6654C20.1376 46.432 22.4951 48.3257 23.8944 50.6768C24.5161 51.7224 25.2316 52.3353 26.1498 52.6063C27.0374 52.8677 27.9905 52.7422 29.101 52.3499C29.3798 50.1266 30.3983 49.2944 31.1678 48.1225V48.1207C23.3538 46.9552 20.2397 42.8097 19.0037 39.5376C17.3658 35.193 18.2447 29.7653 21.141 26.3352C21.1973 26.2684 21.2989 26.0935 21.2596 25.9713C19.9316 21.9599 21.5498 18.6416 21.6093 18.2896C23.1419 18.7428 23.3909 17.8336 28.2665 20.7958L29.1093 21.3021C29.4618 21.5122 29.351 21.3923 29.7035 21.3658C31.7391 20.8128 33.8851 20.5074 35.9995 20.48C38.13 20.5074 40.2622 20.8128 42.3821 21.3882L42.655 21.4156C42.6312 21.412 42.7291 21.3983 42.8935 21.3003C48.984 17.6112 48.7652 18.8169 50.3985 18.2859C50.4576 18.6384 52.0542 22.0107 50.7404 25.9713C50.5633 26.517 56.0208 31.5144 52.9958 39.5362C51.7599 42.8097 48.6462 46.9552 40.8322 48.1207V48.1225C41.8337 49.6491 43.0372 50.4612 43.0308 53.6106V66C56.1334 62.8341 65.9995 50.0611 65.9995 36C66 19.5223 52.4777 6 36 6V6Z" fill="#DCE7E9"/>
</svg>
